<?xml version="1.0" encoding="UTF-8"?>
<svg width="48px" height="48px" viewBox="0 0 48 48" version="1.1" xmlns="http://www.w3.org/2000/svg" xmlns:xlink="http://www.w3.org/1999/xlink">
    <!-- Generator: sketchtool 50.2 (55047) - http://www.bohemiancoding.com/sketch -->
    <title>0A2995AF-A2A0-4A1B-8974-2F92CA342D18</title>
    <desc>Created with sketchtool.</desc>
    <defs>
        <linearGradient x1="100%" y1="0%" x2="2.32110786%" y2="100%" id="linearGradient-1">
            <stop stop-color="#5B5EC4" offset="0%"></stop>
            <stop stop-color="#2E3092" offset="100%"></stop>
        </linearGradient>
        <rect id="path-2" x="0" y="0" width="36" height="36" rx="18"></rect>
        <filter x="-25.0%" y="-22.2%" width="155.6%" height="155.6%" filterUnits="objectBoundingBox" id="filter-4">
            <feOffset dx="1" dy="2" in="SourceAlpha" result="shadowOffsetOuter1"></feOffset>
            <feGaussianBlur stdDeviation="3" in="shadowOffsetOuter1" result="shadowBlurOuter1"></feGaussianBlur>
            <feColorMatrix values="0 0 0 0 0   0 0 0 0 0   0 0 0 0 0  0 0 0 0.3 0" type="matrix" in="shadowBlurOuter1"></feColorMatrix>
        </filter>
        <circle id="path-5" cx="15" cy="15" r="15"></circle>
        <filter x="-30.0%" y="-26.7%" width="166.7%" height="166.7%" filterUnits="objectBoundingBox" id="filter-6">
            <feOffset dx="1" dy="2" in="SourceAlpha" result="shadowOffsetOuter1"></feOffset>
            <feGaussianBlur stdDeviation="3" in="shadowOffsetOuter1" result="shadowBlurOuter1"></feGaussianBlur>
            <feColorMatrix values="0 0 0 0 0   0 0 0 0 0   0 0 0 0 0  0 0 0 0.3 0" type="matrix" in="shadowBlurOuter1"></feColorMatrix>
        </filter>
        <circle id="path-7" cx="15.375" cy="15.375" r="12.375"></circle>
        <filter x="-36.4%" y="-32.3%" width="180.8%" height="180.8%" filterUnits="objectBoundingBox" id="filter-8">
            <feOffset dx="1" dy="2" in="SourceAlpha" result="shadowOffsetOuter1"></feOffset>
            <feGaussianBlur stdDeviation="3" in="shadowOffsetOuter1" result="shadowBlurOuter1"></feGaussianBlur>
            <feColorMatrix values="0 0 0 0 0   0 0 0 0 0   0 0 0 0 0  0 0 0 0.3 0" type="matrix" in="shadowBlurOuter1"></feColorMatrix>
        </filter>
        <path d="M20.2992187,8.03730469 C20.2113277,8.03730469 20.1380862,8.0226564 20.0794922,7.99335938 C19.2005815,7.52460703 18.3436565,7.18769634 17.5086914,6.98261719 C16.6737263,6.77753804 15.7875047,6.675 14.85,6.675 C13.0042876,6.675 11.261141,7.11444873 9.62050781,7.99335938 C9.38613164,8.11054746 9.19570386,8.04463015 9.04921875,7.79560547 C8.90273364,7.54658079 8.94667852,7.33418057 9.18105469,7.15839844 C10.938876,6.22089375 12.8285055,5.75214844 14.85,5.75214844 C15.8460987,5.75214844 16.8055618,5.86201062 17.728418,6.08173828 C18.6512741,6.30146594 19.5814406,6.66034907 20.5189453,7.15839844 C20.7533215,7.33418057 20.8119146,7.53925664 20.6947266,7.77363281 C20.6068355,7.94941494 20.4750009,8.03730469 20.2992187,8.03730469 Z M6.89589844,12.9591797 C6.77871035,12.9591797 6.67617231,12.9298831 6.58828125,12.8712891 C6.3832021,12.6955069 6.35390552,12.4904309 6.50039062,12.2560547 C7.43789531,10.9376887 8.60975859,9.91230835 10.0160156,9.17988281 C11.5394607,8.41816025 13.1507728,8.03730469 14.85,8.03730469 C16.5492272,8.03730469 18.1605393,8.41816025 19.6839844,9.17988281 C21.0902414,9.88301133 22.2621047,10.8937434 23.1996094,12.2121094 C23.3460945,12.4464855 23.3021496,12.6515616 23.0677734,12.8273438 C22.8333973,13.0031259 22.6136729,12.9884776 22.4085937,12.7833984 C21.5589801,11.5822206 20.5043032,10.6593782 19.2445312,10.0148438 C17.8675712,9.31171523 16.395418,8.96015625 14.8280273,8.96015625 C13.2606367,8.96015625 11.8031317,9.31171523 10.4554687,10.0148438 C9.1663998,10.6593782 8.09707456,11.5822206 7.24746094,12.7833984 C7.15956987,12.9005865 7.04238354,12.9591797 6.89589844,12.9591797 Z M12.740625,24.2970703 C12.6234369,24.2970703 12.5208989,24.2531254 12.4330078,24.1652344 C12.0228495,23.7550761 11.6786147,23.3742205 11.400293,23.0226563 C11.1219713,22.671092 10.8363296,22.216995 10.5433594,21.6603516 C9.86952788,20.4884707 9.53261719,19.1408279 9.53261719,17.6173828 C9.59121123,16.1818288 10.1185497,14.987993 11.1146484,14.0358398 C12.1107472,13.0836866 13.3558519,12.5929689 14.85,12.5636719 C16.3441481,12.5929689 17.5892528,13.0836866 18.5853516,14.0358398 C19.5814503,14.987993 20.1087888,16.1818288 20.1673828,17.6173828 C20.1380858,17.910353 19.9769546,18.0568359 19.6839844,18.0568359 C19.3910142,18.0568359 19.229883,17.910353 19.2005859,17.6173828 C19.1712889,16.445502 18.7464885,15.4713906 17.9261719,14.6950195 C17.1058553,13.9186485 16.0804749,13.5304688 14.85,13.5304688 C13.6195251,13.5304688 12.5941447,13.9186485 11.7738281,14.6950195 C10.9535115,15.4713906 10.5287111,16.445502 10.4994141,17.6173828 C10.4994141,18.9943428 10.7777316,20.1955027 11.334375,21.2208984 C11.6273452,21.7482448 11.9056627,22.1730453 12.1693359,22.4953125 C12.4330091,22.8175797 12.7406232,23.1544904 13.0921875,23.5060547 C13.2679696,23.7111338 13.2679696,23.9308582 13.0921875,24.1652344 C12.9749994,24.2531254 12.8578131,24.2970703 12.740625,24.2970703 Z M17.5746094,24.4728516 L17.4427734,24.4728516 C16.7103479,24.2677724 16.0731472,24.0114273 15.5311523,23.7038086 C14.9891574,23.3961899 14.4691431,22.9933619 13.9710937,22.4953125 C13.2972623,21.850778 12.7918962,21.1110393 12.4549805,20.2760742 C12.1180647,19.4411091 11.9496094,18.5548875 11.9496094,17.6173828 C11.9496094,16.8263632 12.2206028,16.1745143 12.7625977,15.6618164 C13.3045926,15.1491185 13.9857381,14.8927734 14.8060547,14.8927734 C15.6263713,14.8927734 16.3075168,15.1491185 16.8495117,15.6618164 C17.3915066,16.1745143 17.6771483,16.8263632 17.7064453,17.6173828 C17.7357423,18.1154322 17.9334943,18.5402326 18.299707,18.8917969 C18.6659198,19.2433611 19.1200168,19.4191406 19.6620117,19.4191406 C20.2040066,19.4191406 20.6581036,19.2433611 21.0243164,18.8917969 C21.3905292,18.5402326 21.5882811,18.1154322 21.6175781,17.6173828 C21.5589841,15.8009675 20.8924868,14.2921935 19.6180664,13.0910156 C18.343646,11.8898377 16.7396581,11.2599612 14.8060547,11.2013672 C13.4583917,11.2306642 12.2279353,11.574899 11.1146484,12.234082 C10.0013616,12.893265 9.16640903,13.8087832 8.60976562,14.9806641 C8.25820137,15.7423866 8.08242187,16.6212841 8.08242187,17.6173828 C8.05312485,17.9689471 8.08242144,18.4303682 8.1703125,19.0016602 C8.25820356,19.5729521 8.43398306,20.2394493 8.69765625,21.0011719 C8.78554731,21.2648451 8.69033342,21.4479487 8.41201172,21.5504883 C8.13369001,21.6530279 7.93593809,21.5724623 7.81875,21.3087891 C7.34999766,20.0783142 7.115625,18.8478577 7.115625,17.6173828 C7.115625,16.474799 7.33534937,15.4640669 7.77480469,14.5851563 C8.41933916,13.2374933 9.37147808,12.1828163 10.63125,11.4210938 C11.8910219,10.6593712 13.2826096,10.2638673 14.8060547,10.2345703 C17.0033313,10.2931644 18.8270435,11.0182548 20.2772461,12.4098633 C21.7274487,13.8014718 22.4818356,15.5372943 22.5404297,17.6173828 C22.5111327,18.3791054 22.225491,19.0236302 21.6834961,19.5509766 C21.1415012,20.0783229 20.4676798,20.3419922 19.6620117,20.3419922 C18.8563436,20.3419922 18.1751981,20.0783229 17.6185547,19.5509766 C17.0619113,19.0236302 16.7835937,18.3791054 16.7835937,17.6173828 C16.7542967,17.0900364 16.5565448,16.6579118 16.190332,16.3209961 C15.8241193,15.9840803 15.3626981,15.815625 14.8060547,15.815625 C14.2494113,15.815625 13.7879901,15.9840803 13.4217773,16.3209961 C13.0555646,16.6579118 12.8724609,17.0900364 12.8724609,17.6173828 C12.8724609,18.4084024 13.0189438,19.1627894 13.3119141,19.8805664 C13.6048843,20.5983434 14.044333,21.2501924 14.6302734,21.8361328 C15.0697288,22.2755881 15.5238258,22.6271471 15.9925781,22.8908203 C16.4613305,23.1544935 17.0326138,23.3742179 17.7064453,23.55 C17.9701185,23.6671881 18.0726565,23.8502917 18.0140625,24.0993164 C17.9554685,24.3483411 17.8089855,24.4728516 17.5746094,24.4728516 Z" id="path-9"></path>
        <filter x="-88.9%" y="-74.8%" width="289.6%" height="270.9%" filterUnits="objectBoundingBox" id="filter-10">
            <feOffset dx="1" dy="2" in="SourceAlpha" result="shadowOffsetOuter1"></feOffset>
            <feGaussianBlur stdDeviation="5" in="shadowOffsetOuter1" result="shadowBlurOuter1"></feGaussianBlur>
            <feColorMatrix values="0 0 0 0 0   0 0 0 0 0   0 0 0 0 0  0 0 0 0.3 0" type="matrix" in="shadowBlurOuter1"></feColorMatrix>
        </filter>
    </defs>
    <g id="Landing-pages" stroke="none" stroke-width="1" fill="none" fill-rule="evenodd">
        <g id="NRI-2.1" transform="translate(-166.000000, -324.000000)">
            <g id="fold" transform="translate(0.000000, 89.000000)">
                <g id="Stacked-Group" transform="translate(163.000000, 90.000000)">
                    <g id="points" transform="translate(0.000000, 136.000000)">
                        <g id="Stacked-Group" transform="translate(4.000000, 13.000000)">
                            <g transform="translate(4.000000, 0.000000)" id="04a-ic-goal">
                                <g>
                                    <mask id="mask-3" fill="white">
                                        <use xlink:href="#path-2"></use>
                                    </mask>
                                    <g id="Rectangle-22">
                                        <use fill="black" fill-opacity="1" filter="url(#filter-4)" xlink:href="#path-2"></use>
                                        <use fill="url(#linearGradient-1)" fill-rule="evenodd" xlink:href="#path-2"></use>
                                    </g>
                                    <g id="Group-12" mask="url(#mask-3)">
                                        <g transform="translate(3.000000, 3.000000)">
                                            <g id="Oval-6" fill="none">
                                                <use fill="black" fill-opacity="1" filter="url(#filter-6)" xlink:href="#path-5"></use>
                                                <use fill="url(#linearGradient-1)" fill-rule="evenodd" xlink:href="#path-5"></use>
                                            </g>
                                            <g id="Oval-6" fill="none">
                                                <use fill="black" fill-opacity="1" filter="url(#filter-8)" xlink:href="#path-7"></use>
                                                <use fill="url(#linearGradient-1)" fill-rule="evenodd" xlink:href="#path-7"></use>
                                            </g>
                                            <g id="" fill="none">
                                                <use fill="black" fill-opacity="1" filter="url(#filter-10)" xlink:href="#path-9"></use>
                                                <use fill="#FFFFFF" fill-rule="evenodd" xlink:href="#path-9"></use>
                                            </g>
                                            <path d="M19.4642578,22.5392578 C18.350971,22.5392578 17.3841838,22.2609403 16.5638672,21.7042969 C15.8607387,21.2355445 15.3114278,20.6422887 14.915918,19.9245117 C14.5204082,19.2067347 14.3226562,18.4376994 14.3226562,17.6173828 C14.3519533,17.3244126 14.5130845,17.1779297 14.8060547,17.1779297 C15.0990249,17.1779297 15.2455078,17.3244126 15.2455078,17.6173828 C15.2748048,18.2912143 15.4432602,18.9137667 15.7508789,19.4850586 C16.0584976,20.0563505 16.5052705,20.5470683 17.0912109,20.9572266 C17.7357454,21.3966819 18.5267531,21.6164063 19.4642578,21.6164063 C19.698634,21.6164063 20.0208964,21.5871097 20.4310547,21.5285156 C20.7240249,21.4992186 20.8924802,21.6237291 20.9364258,21.9020508 C20.9803713,22.1803725 20.863185,22.356152 20.5848633,22.4293945 C20.3065416,22.5026371 20.0648448,22.5392578 19.8597656,22.5392578 L19.4642578,22.5392578 Z" id="Path" fill="#25D782" fill-rule="evenodd"></path>
                                        </g>
                                    </g>
                                </g>
                            </g>
                        </g>
                    </g>
                </g>
            </g>
        </g>
    </g>
</svg>