<?xml version="1.0" encoding="UTF-8"?>
<svg width="887px" height="449px" viewBox="0 0 887 449" version="1.1" xmlns="http://www.w3.org/2000/svg" xmlns:xlink="http://www.w3.org/1999/xlink">
    <!-- Generator: sketchtool 50.2 (55047) - http://www.bohemiancoding.com/sketch -->
    <title>D125A973-4055-41D6-8BB4-D6A5CE056BBB</title>
    <desc>Created with sketchtool.</desc>
    <defs>
        <rect id="path-1" x="0" y="0" width="1440" height="575"></rect>
    </defs>
    <g id="Landing-pages" stroke="none" stroke-width="1" fill="none" fill-rule="evenodd">
        <g id="NRI-2.1" transform="translate(-553.000000, -215.000000)">
            <g id="fold" transform="translate(0.000000, 89.000000)">
                <g id="bg">
                    <g id="pttrn">
                        <mask id="mask-2" fill="white">
                            <use xlink:href="#path-1"></use>
                        </mask>
                        <g id="Rectangle-6"></g>
                        <g id="Group" mask="url(#mask-2)" stroke="#6D70EA" stroke-linecap="round" stroke-linejoin="round">
                            <g transform="translate(977.942983, 510.447981) rotate(81.000000) translate(-977.942983, -510.447981) translate(589.942983, -200.552019)">
                                <path d="M773.430392,106.278876 C775.813564,108.661917 776.620406,112.202861 775.507263,115.385228 C774.39412,118.560125 771.547761,120.82364 768.200861,121.197157 C763.404634,121.727552 757.853861,122.347591 751.787605,123.019922 C676.512246,131.386709 611.098287,178.524593 579.362506,247.289129 C572.750885,260.638637 540.723745,324.696855 525.70005,354.735116 C520.537756,365.066605 515.853591,375.629674 511.662495,386.394443 C508.009295,395.792138 503.063653,408.521608 497.632411,422.491155 C471.342813,490.075376 465.29897,563.852514 480.240486,634.820801 C493.209723,696.421275 508.674192,769.854777 518.057464,814.430332 C523.742711,841.420692 532.393849,867.6939 543.861463,892.779322 C568.686793,947.088738 614.542306,1047.37813 642.191583,1107.873 C657.402046,1141.13845 667.636985,1176.45077 672.582627,1212.69689 C678.843122,1258.60217 687.210371,1319.97853 690.086613,1341.03744 C690.758982,1346.00522 691.102637,1351.01035 691.102637,1356.02295 C691.102637,1360.65457 691.102637,1367.13883 691.102637,1374.63158 C691.102637,1391.1784 681.816484,1406.32826 667.069207,1413.84343 C652.321931,1421.35113 634.601292,1419.95417 621.221164,1410.22031 C606.30206,1399.37337 585.951715,1400.03823 571.80957,1411.83391 C555.194603,1425.67646 533.551817,1424.69784 520.007332,1411.15411 C517.407508,1408.55443 514.703094,1405.85016 511.953855,1403.10107 C481.719696,1372.86111 458.732173,1336.1593 444.746914,1295.74473 C433.906844,1264.44398 420.750839,1226.43486 409.843532,1194.92494 C395.454851,1153.34499 373.827007,1114.64113 345.961078,1080.58382 C317.856086,1046.23517 281.809678,1002.18254 257.918193,972.988427 C240.869923,952.146162 226.399064,929.324255 214.819389,905.008278 C208.992198,892.779322 202.178866,878.473609 195.148883,863.704735 C164.414183,799.160945 102.324712,755.25025 31.2255062,747.764964 C19.8475414,746.569708 9.78293599,739.868808 4.28819334,729.836133 C-1.20654932,719.803458 -1.43366037,707.716438 3.68156777,697.489535 C17.0026767,670.850281 32.4798465,639.893166 38.8314851,627.193578 C40.7955474,623.264176 43.0016623,619.46177 45.4378766,615.808771 C49.4974866,609.720439 56.5439057,599.149899 64.5525585,587.137582 C94.8688953,541.673056 111.043087,488.252612 111.043087,433.60703 C111.043087,386.454206 123.698551,340.167941 147.679685,299.574081 C167.230659,266.495388 190.39748,227.291012 205.951599,200.972983 C217.68816,181.116803 231.232645,162.388646 246.420696,145.027561 C249.969306,140.978634 253.794334,136.608481 257.813602,132.006748 C314.098295,67.6945387 390.733332,24.6205233 474.928777,9.97864495 C483.953453,8.40987228 492.612062,6.90086237 500.553478,5.52631869 C529.368192,0.513716479 558.668506,-1.09987827 587.856758,0.730356516 C606.436534,1.88826016 627.832785,3.2254521 645.568365,4.33106332 C670.087394,5.86248427 694.38977,9.89647115 718.087015,16.3583205 C721.538505,17.2995841 725.087116,18.2707291 728.643196,19.2344037 C741.59002,22.7678774 752.586977,31.3363644 759.183656,43.0349263 C765.772865,54.7260179 767.40149,68.5685692 763.718406,81.4773272 C761.641535,88.7235629 763.65864,96.5076635 768.97782,101.82655 C770.412206,103.253386 771.921299,104.769866 773.430392,106.278876 Z" id="Stroke-2"></path>
                                <path d="M660.744254,44.1847133 C673.073201,42.6459371 684.490553,50.8776427 686.926454,63.0459262 C687.531694,66.0786598 688.144405,69.1188632 688.704812,71.9125637 C690.176813,79.2777739 686.022332,86.6056353 678.946263,89.1304234 C609.478249,113.937587 553.415163,166.442722 524.139518,234.126464 C502.455515,284.263677 477.304462,342.401031 458.684016,385.441945 C440.706169,427.003842 430.439518,471.493895 428.384694,516.730927 C427.517931,535.651898 426.591392,556.111645 425.739574,574.771174 C423.819247,617.117398 429.116959,659.478562 441.416018,700.046977 C461.545826,766.460855 492.398083,868.244177 504.40573,907.848989 C507.745754,918.889335 511.601352,929.765345 515.95758,940.447141 C530.602875,976.384287 566.446487,1064.33356 587.824134,1116.78641 C599.017324,1144.26029 606.900378,1172.96668 611.301439,1202.30053 C616.188185,1234.89122 622.681431,1278.12634 626.761192,1305.32384 C628.920625,1319.72559 619.132188,1333.19362 604.763361,1335.58395 C601.819358,1336.07695 598.867882,1336.56996 596.073321,1337.03309 C584.663441,1338.93788 572.962149,1338.0191 561.993122,1334.3589 C523.295172,1321.46605 492.554996,1291.68401 478.455164,1253.42376 C466.253242,1220.31766 452.19077,1182.16199 444.980204,1162.57621 C441.759734,1153.85149 438.875507,1145.00727 436.320053,1136.06593 C431.971297,1120.87238 424.484263,1094.66837 416.690874,1067.38871 C398.048011,1002.16252 361.987709,943.240841 312.373036,896.958039 C299.446322,884.886863 287.109902,873.375921 277.493323,864.404706 C264.760883,852.527744 253.687247,838.99249 244.556354,824.164962 C237.958499,813.445817 229.739201,800.097307 221.669344,786.987831 C200.829687,753.127285 167.033428,729.261315 128.148675,720.932502 C113.137248,717.713023 100.322615,708.054589 93.1120487,694.526804 C85.9014825,680.991549 85.0272481,664.976325 90.7209801,650.738911 C98.9402783,630.204465 107.570541,608.62425 113.264273,594.386835 C117.598085,583.570583 121.364018,572.545177 124.569544,561.347966 C133.311889,530.736778 151.200071,468.14743 154.02452,458.287311 C156.423061,449.674646 163.469241,424.314718 171.389656,395.81001 C188.635238,333.758487 221.631984,277.219667 267.189312,231.676374 C285.122326,213.748885 304.235931,194.641169 321.511401,177.363551 C359.73861,139.155589 405.811512,109.687278 456.532054,91.00534 C472.880985,84.9846914 489.506384,78.8594659 503.807963,73.5932658 C530.558042,63.7406164 558.33927,56.9804589 586.6286,53.4472495 C611.137053,50.3846367 640.920801,46.6646827 660.744254,44.1847133 Z" id="Stroke-3"></path>
                                <path d="M467.755892,175.540059 C457.221764,166.464882 442.328944,164.433237 429.746306,170.356378 C428.243567,171.05849 426.733351,171.768072 425.223135,172.477654 C378.286829,194.549381 336.927854,226.891371 304.218976,267.113454 C301.176115,270.848095 298.110826,274.620082 295.053013,278.377131 C259.660138,321.900636 234.532243,372.826199 221.530931,427.381833 C211.452858,469.672906 200.814062,514.286926 198.44407,524.23601 C198.122588,525.595419 197.793631,526.954828 197.44972,528.306768 C194.698436,539.301551 181.405548,592.438022 172.239586,629.067379 C167.148215,649.406234 178.145875,670.327692 197.793631,677.692404 C220.342197,686.140161 239.361942,701.96757 251.750196,722.590257 C262.830095,741.046852 276.833234,764.365949 288.399093,783.621758 C303.060147,808.023901 322.311658,829.35617 345.099467,846.430948 C346.946116,847.812765 348.792766,849.194583 350.616987,850.56893 C367.423743,863.15467 390.936754,861.48902 405.792192,846.647558 C421.380309,831.074105 425.245564,807.299381 415.391781,787.610354 C409.298584,775.427956 403.063337,762.969194 399.721425,756.291656 C398.061683,752.982764 396.229985,749.770973 394.233809,746.663752 C393.807659,746.006455 393.344128,745.281935 392.843215,744.505129 C345.749906,671.321106 329.885165,582.36196 348.777814,497.428757 C352.19449,482.064445 356.964379,467.03625 363.020194,452.508497 C371.266569,432.722369 383.23615,404.040327 390.607796,386.353068 C395.026299,375.769096 399.923285,365.394263 405.298756,355.258448 C421.238259,325.17965 456.399369,258.815082 469.841784,233.449401 C473.415462,226.712109 476.316273,219.638699 478.506833,212.333741 C482.506661,199.023481 478.297496,184.607767 467.755892,175.540059 Z" id="Stroke-4"></path>
                                <path d="M406,251.980141 C406,249.561173 404.74103,247.313922 402.680216,246.044711 C400.611908,244.768033 398.034018,244.656044 395.860796,245.738607 C368.448224,259.39383 345.52448,280.544868 329.75738,306.72049 C322.181079,319.300616 313.727995,333.344069 305.791988,346.514006 C285.873285,379.588166 271.222772,415.536718 262.357526,453.075516 C257.936143,471.80012 253.147561,492.06271 249.228268,508.652052 C243.757744,531.81143 241,555.523288 241,579.309807 C241,586.589108 241,594.159582 241,601.155178 C241,607.344451 244.21487,613.085766 249.490553,616.333455 C254.773731,619.588609 261.368335,619.879781 266.921292,617.11738 C283.22795,608.994426 294.206467,593.129281 296.01249,575.076613 C296.686938,568.379655 297.413843,561.167547 298.110773,554.194349 C300.553774,529.855351 305.919384,505.897116 314.087701,482.827329 C323.177764,457.166857 335.400263,422.674166 343.890817,398.700999 C350.552866,379.909202 358.706195,361.677351 368.283359,344.184629 C377.710646,326.968148 389.700836,305.063049 397.606867,290.631367 C403.114861,280.567266 406,269.286214 406,257.82598 C406,255.840038 406,253.854095 406,251.980141 Z" id="Stroke-5"></path>
                            </g>
                        </g>
                    </g>
                </g>
            </g>
        </g>
    </g>
</svg>