<?xml version="1.0" encoding="UTF-8"?>
<svg width="26px" height="20px" viewBox="0 0 26 20" version="1.1" xmlns="http://www.w3.org/2000/svg" xmlns:xlink="http://www.w3.org/1999/xlink">
    <!-- Generator: sketchtool 50.2 (55047) - http://www.bohemiancoding.com/sketch -->
    <title>D48B3249-3ED3-4C95-B6D8-4F073C954E75</title>
    <desc>Created with sketchtool.</desc>
    <defs></defs>
    <g id="Landing-pages" stroke="none" stroke-width="1" fill="none" fill-rule="evenodd">
        <g id="NRI-2.1" transform="translate(-708.000000, -2979.000000)" fill="#22C979">
            <g id="Group-33" transform="translate(0.000000, 2649.000000)">
                <g id="Group-32" transform="translate(332.000000, 250.000000)">
                    <g id="Group-29">
                        <g id="Group-25" transform="translate(60.000000, 80.000000)">
                            <g id="Group-23">
                                <g id="Group-8">
                                    <g id="Stacked-Group">
                                        <path d="M328,15.4415954 C328,16.6571761 327.486289,17.7207932 326.458853,18.6324786 C325.431416,19.5441641 324.219458,20 322.822943,20 C320.628418,20 318.942649,19.3067496 317.765586,17.9202279 C316.588523,16.5337063 316,14.6153969 316,12.1652422 C316,9.88602849 317.012459,7.58785584 319.037406,5.27065527 C321.062354,2.9534547 323.501233,1.19658718 326.354115,0 L327.670823,2.02279202 C325.416448,3.06743162 323.650879,4.28299402 322.374065,5.66951567 C321.09725,7.05603732 320.359103,8.73693219 320.159601,10.7122507 L321.835411,10.7122507 C323.072325,10.7122507 324.079797,10.8452028 324.857855,11.1111111 C325.635914,11.3770194 326.264337,11.747386 326.743142,12.2222222 C327.201997,12.678065 327.526184,13.1813838 327.715711,13.7321937 C327.905238,14.2830037 328,14.8527986 328,15.4415954 Z M342,15.4415954 C342,16.6571761 341.486289,17.7207932 340.458853,18.6324786 C339.431416,19.5441641 338.219458,20 336.822943,20 C334.628418,20 332.942649,19.3067496 331.765586,17.9202279 C330.588523,16.5337063 330,14.6153969 330,12.1652422 C330,9.88602849 331.012459,7.58785584 333.037406,5.27065527 C335.062354,2.9534547 337.501233,1.19658718 340.354115,0 L341.670823,2.02279202 C339.416448,3.06743162 337.650879,4.28299402 336.374065,5.66951567 C335.09725,7.05603732 334.359103,8.73693219 334.159601,10.7122507 L335.835411,10.7122507 C337.072325,10.7122507 338.079797,10.8452028 338.857855,11.1111111 C339.635914,11.3770194 340.264337,11.747386 340.743142,12.2222222 C341.201997,12.678065 341.526184,13.1813838 341.715711,13.7321937 C341.905238,14.2830037 342,14.8527986 342,15.4415954 Z" id="“"></path>
                                    </g>
                                </g>
                            </g>
                        </g>
                    </g>
                </g>
            </g>
        </g>
    </g>
</svg>