<?xml version="1.0" encoding="UTF-8"?>
<svg width="527px" height="409px" viewBox="0 0 527 409" version="1.1" xmlns="http://www.w3.org/2000/svg" xmlns:xlink="http://www.w3.org/1999/xlink">
    <!-- Generator: sketchtool 50.2 (55047) - http://www.bohemiancoding.com/sketch -->
    <title>23CE9423-FA4B-4852-BADF-C08EE7EABDE9</title>
    <desc>Created with sketchtool.</desc>
    <defs>
        <rect id="path-1" x="10.6849467" y="13.2444576" width="508.873882" height="384.162602" rx="20"></rect>
    </defs>
    <g id="Landing-pages" stroke="none" stroke-width="1" fill="none" fill-rule="evenodd">
        <g id="NRI-2.1" transform="translate(-739.000000, -1609.000000)">
            <g id="Group-18" transform="translate(193.000000, 1607.000000)">
                <g id="graph-bg" transform="translate(544.000000, 1.000000)">
                    <mask id="mask-2" fill="white">
                        <use xlink:href="#path-1"></use>
                    </mask>
                    <use id="color/secondary" fill="#F3F3F3" transform="translate(265.121888, 205.325758) rotate(-3.000000) translate(-265.121888, -205.325758) " xlink:href="#path-1"></use>
                    <g id="Group-3" mask="url(#mask-2)" stroke-linecap="round" stroke-linejoin="round">
                        <g transform="translate(118.357597, 472.007087) rotate(-22.000000) translate(-118.357597, -472.007087) translate(-627.642403, -186.492913)" id="Group">
                            <g transform="translate(745.840322, 658.218925) rotate(57.000000) translate(-745.840322, -658.218925) translate(387.340322, 1.718925)">
                                <path d="M714.035709,98.1173141 C716.235868,100.317352 716.980749,103.586373 715.953089,106.524354 C714.925428,109.455439 712.297652,111.54513 709.207774,111.889963 C704.779868,112.379627 699.655359,112.95205 694.054955,113.572751 C624.560278,121.297021 564.169708,164.815006 534.871039,228.298849 C534.815863,228.409196 534.767584,228.519542 534.726201,228.616096 C534.326173,229.478179 533.91235,230.340263 533.484732,231.19545 C528.76715,240.623197 499.199497,299.762139 485.329529,327.493647 C480.563667,337.031741 476.239217,346.783632 472.369972,356.721733 C468.997314,365.397743 464.431467,377.149668 459.417312,390.04644 C435.146593,452.44061 429.566879,520.552119 443.360979,586.07048 C455.334258,642.940417 469.611152,710.734679 478.273847,751.887106 C483.522502,776.804774 491.509286,801.06036 502.096258,824.219377 C525.015155,874.358165 567.349248,966.945954 592.87523,1022.79518 C606.917624,1053.50605 616.366583,1086.10661 620.93243,1119.56925 C626.712158,1161.94929 634.436854,1218.61232 637.092218,1238.05403 C637.712953,1242.64032 638.030217,1247.26109 638.030217,1251.88875 C638.030217,1256.16469 638.030217,1262.151 638.030217,1269.06836 C638.030217,1284.34448 629.457184,1298.33093 615.842407,1305.26898 C602.22763,1312.20013 585.867828,1310.91045 573.515211,1301.92409 C573.508314,1301.91719 573.501417,1301.9103 573.49452,1301.9103 C559.741802,1291.91013 540.954238,1292.52393 527.898122,1303.41377 C527.311873,1303.89654 526.725623,1304.3862 526.139374,1304.87587 C512.559083,1316.1933 492.578329,1315.28984 480.073977,1302.78618 C477.673803,1300.38613 475.177071,1297.88954 472.638957,1295.35157 C444.726595,1267.43385 423.504372,1233.55051 410.593095,1196.23953 C400.585475,1167.34248 388.43977,1132.25223 378.370077,1103.16207 C365.086358,1064.77521 345.119398,1029.04357 319.393402,997.60165 C293.446699,965.890763 260.168433,925.221103 238.111667,898.268918 C222.372599,879.02721 209.013013,857.957884 198.322585,835.509225 C192.942886,824.219377 186.652776,811.012255 180.162652,797.377539 C151.788188,737.790314 94.4668053,697.25169 28.8275799,690.341227 C28.8268902,690.341227 28.8262005,690.341227 28.8248211,690.341227 C18.3233727,689.23776 9.03166686,683.051447 3.95888654,673.78922 C-1.11389377,664.526993 -1.3235641,653.368182 3.39884608,643.926641 C15.696976,619.333117 29.9855946,590.753318 35.8494666,579.02898 C37.662701,575.401332 39.6993999,571.890927 41.9485279,568.518456 C45.6963849,562.89767 52.2016826,553.138883 59.5953202,542.049038 C87.5835493,500.075907 102.515663,450.757823 102.515663,400.308685 C102.515663,400.301788 102.515663,400.301788 102.515663,400.301788 C102.515663,356.776906 114.199265,314.045142 136.338796,276.568639 C154.388376,246.030186 175.776128,209.836465 190.135787,185.539498 C200.971052,167.20815 213.475404,149.918199 227.497107,133.890339 C230.773206,130.152344 234.304495,126.117793 238.015108,121.869444 C289.977483,62.4960157 360.727423,22.7298189 438.457177,9.21234657 C446.788813,7.76404596 454.782494,6.37091871 462.114058,5.10193151 C488.715981,0.474266223 515.766211,-1.01541441 542.712985,0.67426964 C559.865949,1.74325342 579.6191,2.97775728 595.992697,3.99846438 C618.628815,5.41228164 641.064919,9.13648321 662.942362,15.1021024 C666.128799,15.9710828 669.404898,16.8676498 672.687894,17.7573202 C684.640481,21.0194449 694.792939,28.9299249 700.883034,39.7301094 C706.966232,50.5233973 708.469789,63.302926 705.069544,75.2203711 C705.062647,75.2272677 705.062647,75.2341644 705.062647,75.2341644 C703.152164,81.9101406 705.014367,89.0964703 709.925067,94.006899 C711.249301,95.3241629 712.642505,96.7241868 714.035709,98.1173141 Z" id="Stroke-2" stroke="#FFFFFF" stroke-width="2"></path>
                                <path d="M610.003171,40.7915999 C621.385331,39.3709922 631.925901,46.9705536 634.17474,58.2043879 C634.733501,61.0042263 635.299159,63.8109609 635.81653,66.3901224 C637.175491,73.1897299 633.340048,79.9548567 626.807378,82.2857567 C626.807378,82.2926528 626.807378,82.2926528 626.80048,82.2926528 C562.674079,105.187883 510.916293,153.660947 483.888836,216.146996 C463.870031,262.43398 440.650424,316.106744 423.459913,355.842382 C406.862654,394.212581 397.384419,435.286072 395.487392,477.049179 C394.687192,494.517136 393.831805,513.405701 393.045401,530.632293 C391.272543,569.726589 396.163423,608.834676 407.51799,646.287687 C426.101954,707.60139 454.584947,801.56838 465.670481,838.131787 C468.754012,848.324302 472.313524,858.365102 476.335221,868.226602 C489.855847,901.403997 522.946891,982.599311 542.682867,1031.0241 C553.016489,1056.38816 560.294173,1082.89007 564.357259,1109.97127 C568.868734,1140.05919 574.863338,1179.97413 578.629798,1205.08302 C580.623401,1218.37881 571.586656,1230.81257 558.321265,1233.01934 C555.603343,1233.47449 552.878523,1233.92963 550.298567,1234.35719 C539.764895,1236.11571 528.96219,1235.26749 518.835517,1231.88837 C518.828619,1231.88837 518.828619,1231.88837 518.828619,1231.88837 C483.10933,1219.98561 454.729811,1192.49064 441.712759,1157.16855 C430.447869,1126.60479 417.465308,1091.37924 410.808469,1073.29752 C407.835311,1065.24282 405.172575,1057.07777 402.813364,1048.82307 C398.798566,1034.7963 391.88649,1010.60459 384.691585,985.419838 C367.48038,925.202623 334.189286,870.805763 288.384714,828.077195 C276.450691,816.93301 265.061633,806.306037 256.183548,798.023757 C244.428881,787.058873 234.205631,774.563042 225.775934,760.874177 C219.684754,750.978196 212.096647,738.65477 204.646506,726.55202 C185.407206,695.291755 154.206291,673.258544 118.307647,665.569333 C118.300749,665.562437 118.293851,665.562437 118.286953,665.562437 C104.449005,662.597091 92.6184568,653.680364 85.9616177,641.191429 C79.3047786,628.695599 78.4976799,613.910245 83.7541685,600.766176 C91.3422753,581.80865 99.3097874,561.885662 104.566276,548.741593 C108.567278,538.755962 112.04401,528.57724 115.003372,518.239905 C123.074358,489.979467 139.588838,432.196595 142.196387,423.093673 C142.42403,422.279926 142.651674,421.46618 142.879317,420.652434 C144.410735,415.142407 150.915812,391.729965 158.227987,365.414243 C174.149215,308.127894 204.612015,255.930907 246.670821,213.885058 C263.226691,197.334289 280.872488,179.693928 296.821309,163.743124 C332.112904,128.469298 374.647691,101.263972 421.473208,84.0166912 C436.566643,78.4583914 451.915313,72.8035453 465.118619,67.941757 C489.814458,58.8457302 515.462258,52.6047111 541.579142,49.3428304 C564.205497,46.5154074 591.702037,43.0811229 610.003171,40.7915999 Z" id="Stroke-3" stroke="#FFFFFF" stroke-width="2"></path>
                                <path d="M441.767362,196.020924 C445.453126,183.739705 441.567199,170.431029 431.835125,162.059665 C422.109953,153.681406 408.36081,151.805779 396.744441,157.274059 C395.357102,157.922253 393.962862,158.577343 392.568621,159.232434 C349.236734,179.609189 311.053873,209.467514 280.856835,246.600788 C278.047648,250.048632 275.217754,253.530954 272.394762,256.999484 C239.719841,297.180652 216.521613,344.195446 204.518722,394.561544 C195.214583,433.604924 185.392781,474.792863 183.20479,483.977918 C182.907996,485.232933 182.6043,486.487948 182.2868,487.736067 C179.746797,497.886519 167.474721,546.942436 159.012648,580.758885 C154.312263,599.535841 164.46537,618.85066 182.6043,625.649808 C182.6043,625.649808 182.611202,625.649808 182.611202,625.649808 C203.421275,633.44883 220.980422,648.06079 232.417334,667.099782 C242.646365,684.139025 255.574149,705.66736 266.251822,723.444441 C279.786997,745.97265 297.560111,765.666732 318.597956,781.430273 C320.302795,782.705975 322.007633,783.981677 323.691765,785.250483 C339.207866,796.869716 360.915223,795.331978 374.629855,781.630248 C374.636757,781.630248 374.636757,781.623352 374.64366,781.623352 C389.020901,767.25274 392.589328,745.303769 383.492255,727.126738 C377.866978,715.879872 372.110559,704.377866 369.025285,698.213122 C367.493001,695.158333 365.801967,692.193187 363.959085,689.324581 C363.56566,688.717761 363.137725,688.048879 362.675279,687.331728 C319.198446,619.767786 304.55202,537.640154 321.993829,459.229297 C321.993829,459.229297 321.993829,459.229297 321.993829,459.229297 C325.148125,445.044869 329.551716,431.170747 335.142482,417.758635 C342.755587,399.491961 353.805977,373.012522 360.611527,356.683536 C364.690716,346.912347 369.211644,337.334238 374.174311,327.976791 C388.889759,300.207859 421.350713,238.93968 433.760833,215.521927 C437.060075,209.302017 439.738121,202.771802 441.76046,196.02782 C441.76046,196.02782 441.76046,196.02782 441.767362,196.020924 Z" id="Stroke-4" stroke="#FFFFFF" stroke-width="2"></path>
                                <path d="M374.821704,232.629621 C374.821704,230.396415 373.659416,228.321739 371.75686,227.149995 C369.847385,225.971358 367.46746,225.867969 365.461128,226.867398 C365.461128,226.867398 365.461128,226.867398 365.45421,226.867398 C340.153673,239.473984 318.990331,259.000752 304.434048,283.166248 C297.43956,294.780299 289.63562,307.745301 282.30905,319.903868 C263.919981,350.438137 250.394536,383.626061 242.210086,418.282112 C238.128238,435.568781 233.70739,454.275329 230.089074,469.590712 C225.038653,490.971593 222.492687,512.862527 222.492687,534.822387 C222.492687,541.542683 222.492687,548.531791 222.492687,554.990168 C222.492687,560.704143 225.460674,566.004561 230.331218,569.002847 C235.20868,572.008026 241.296859,572.276838 246.423383,569.726572 C246.430301,569.719679 246.43722,569.719679 246.444138,569.712786 C261.47779,562.22741 271.613226,547.580611 273.280557,530.914276 C273.903211,524.731604 274.574295,518.073341 275.217705,511.635642 C277.473098,489.165728 282.426663,467.047338 289.967703,445.749168 C298.359705,422.059263 309.643592,390.215398 317.482123,368.083222 C323.632568,350.734519 331.159772,333.902762 340.001469,317.753373 C348.704798,301.859011 359.774215,281.636089 367.073112,268.312671 C372.158126,259.02143 374.821704,248.606694 374.821704,238.026536 C374.821704,236.193101 374.821704,234.359666 374.821704,232.629621 Z" id="Stroke-5" stroke="#FFFFFF" stroke-width="2"></path>
                            </g>
                        </g>
                    </g>
                </g>
            </g>
        </g>
    </g>
</svg>